<svg width="24" height="24" viewBox="0 0 24 24" fill="none" xmlns="http://www.w3.org/2000/svg">
<path d="M8.713 15.713C8.90433 15.521 9 15.2833 9 15V5C9 4.71667 8.904 4.47933 8.712 4.288C8.52 4.09667 8.28267 4.00067 8 4C7.71733 3.99933 7.48 4.09533 7.288 4.288C7.096 4.48067 7 4.718 7 5V15C7 15.2833 7.096 15.521 7.288 15.713C7.48 15.905 7.71733 16.0007 8 16C8.28267 15.9993 8.52033 15.9033 8.713 15.712M6 22C5.16667 22 4.45833 21.7083 3.875 21.125C3.29167 20.5417 3 19.8333 3 19V5C3 4.16667 3.29167 3.45833 3.875 2.875C4.45833 2.29167 5.16667 2 6 2H15C15.55 2 16.021 2.196 16.413 2.588C16.805 2.98 17.0007 3.45067 17 4V16C17 16.55 16.8043 17.021 16.413 17.413C16.0217 17.805 15.5507 18.0007 15 18H6C5.71667 18 5.47933 18.096 5.288 18.288C5.09667 18.48 5.00067 18.7173 5 19C4.99933 19.2827 5.09533 19.5203 5.288 19.713C5.48067 19.9057 5.718 20.0013 6 20H19V5C19 4.71667 19.096 4.47933 19.288 4.288C19.48 4.09667 19.7173 4.00067 20 4C20.2827 3.99933 20.5203 4.09533 20.713 4.288C20.9057 4.48067 21.0013 4.718 21 5V20C21 20.55 20.8043 21.021 20.413 21.413C20.0217 21.805 19.5507 22.0007 19 22H6Z" fill="#F7D66E"/>
</svg>
