<svg width="46" height="46" viewBox="0 0 46 46" fill="none" xmlns="http://www.w3.org/2000/svg">
<g filter="url(#filter0_d_559_675)">
<path fill-rule="evenodd" clip-rule="evenodd" d="M15.525 40.6563C17.8569 41.6632 20.3486 42.1667 23 42.1667C25.6539 42.1692 28.1456 41.6664 30.475 40.6583C32.8044 39.6501 34.8329 38.2842 36.5604 36.5604C38.288 34.8367 39.6533 32.8082 40.6563 30.475C41.6594 28.1418 42.1628 25.6501 42.1667 23C42.1705 20.3499 41.6677 17.8582 40.6583 15.525C39.6488 13.1918 38.2829 11.1633 36.5604 9.43959C34.838 7.71587 32.8095 6.35057 30.475 5.34368C28.1405 4.33679 25.6488 3.83334 23 3.83334C20.3512 3.83334 17.8595 4.33679 15.525 5.34368C13.1905 6.35057 11.162 7.71587 9.43958 9.43959C7.71714 11.1633 6.35183 13.1918 5.34367 15.525C4.3355 17.8582 3.83206 20.3499 3.83333 23C3.83461 25.6501 4.33806 28.1418 5.34367 30.475C6.34928 32.8082 7.71458 34.8367 9.43958 36.5604C11.1646 38.2842 13.1931 39.6495 15.525 40.6563ZM33.8771 33.8771C30.9063 36.8479 27.2806 38.3333 23 38.3333C18.7194 38.3333 15.0938 36.8479 12.1229 33.8771C9.15208 30.9063 7.66667 27.2806 7.66667 23C7.66667 18.7195 9.15208 15.0938 12.1229 12.1229C15.0938 9.15209 18.7194 7.66668 23 7.66668C27.2806 7.66668 30.9063 9.15209 33.8771 12.1229C36.8479 15.0938 38.3333 18.7195 38.3333 23C38.3333 27.2806 36.8479 30.9063 33.8771 33.8771Z" fill="#FFFCF7"/>
<path fill-rule="evenodd" clip-rule="evenodd" d="M23 38.3333C27.2806 38.3333 30.9063 36.8479 33.8771 33.8771C36.8479 30.9063 38.3333 27.2806 38.3333 23C38.3333 18.7195 36.8479 15.0938 33.8771 12.1229C30.9063 9.15209 27.2806 7.66668 23 7.66668C18.7194 7.66668 15.0938 9.15209 12.1229 12.1229C9.15208 15.0938 7.66667 18.7195 7.66667 23C7.66667 27.2806 9.15208 30.9063 12.1229 33.8771C15.0938 36.8479 18.7194 38.3333 23 38.3333ZM28.75 24.9167H22.6167L24.3417 26.6417C24.6931 26.9931 24.8688 27.4403 24.8688 27.9833C24.8688 28.5264 24.6931 28.9736 24.3417 29.325C23.9903 29.6764 23.5431 29.8521 23 29.8521C22.4569 29.8521 22.0097 29.6764 21.6583 29.325L16.675 24.3417C16.2917 23.9583 16.1 23.5111 16.1 23C16.1 22.4889 16.2917 22.0417 16.675 21.6583L21.6583 16.675C22.0097 16.3236 22.4569 16.1479 23 16.1479C23.5431 16.1479 23.9903 16.3236 24.3417 16.675C24.6931 17.0264 24.8688 17.4736 24.8688 18.0167C24.8688 18.5597 24.6931 19.007 24.3417 19.3583L22.6167 21.0833H28.75C29.2931 21.0833 29.7479 21.2673 30.1147 21.6353C30.4814 22.0033 30.6654 22.4582 30.6667 23C30.6679 23.5418 30.4846 23.9967 30.1166 24.3647C29.7486 24.7327 29.2931 24.9167 28.75 24.9167Z" fill="#FFFCF7"/>
<path d="M22.6167 24.9167H28.75C29.2931 24.9167 29.7486 24.7327 30.1166 24.3647C30.4846 23.9967 30.6679 23.5418 30.6667 23C30.6654 22.4582 30.4814 22.0033 30.1147 21.6353C29.7479 21.2673 29.2931 21.0833 28.75 21.0833H22.6167L24.3417 19.3583C24.6931 19.007 24.8688 18.5597 24.8688 18.0167C24.8688 17.4736 24.6931 17.0264 24.3417 16.675C23.9903 16.3236 23.5431 16.1479 23 16.1479C22.4569 16.1479 22.0097 16.3236 21.6583 16.675L16.675 21.6583C16.2917 22.0417 16.1 22.4889 16.1 23C16.1 23.5111 16.2917 23.9583 16.675 24.3417L21.6583 29.325C22.0097 29.6764 22.4569 29.8521 23 29.8521C23.5431 29.8521 23.9903 29.6764 24.3417 29.325C24.6931 28.9736 24.8688 28.5264 24.8688 27.9833C24.8688 27.4403 24.6931 26.9931 24.3417 26.6417L22.6167 24.9167Z" fill="#F7D66E"/>
</g>
<defs>
<filter id="filter0_d_559_675" x="1.83333" y="1.83334" width="42.3334" height="42.3333" filterUnits="userSpaceOnUse" color-interpolation-filters="sRGB">
<feFlood flood-opacity="0" result="BackgroundImageFix"/>
<feColorMatrix in="SourceAlpha" type="matrix" values="0 0 0 0 0 0 0 0 0 0 0 0 0 0 0 0 0 0 127 0" result="hardAlpha"/>
<feOffset/>
<feGaussianBlur stdDeviation="1"/>
<feComposite in2="hardAlpha" operator="out"/>
<feColorMatrix type="matrix" values="0 0 0 0 0 0 0 0 0 0 0 0 0 0 0 0 0 0 0.25 0"/>
<feBlend mode="normal" in2="BackgroundImageFix" result="effect1_dropShadow_559_675"/>
<feBlend mode="normal" in="SourceGraphic" in2="effect1_dropShadow_559_675" result="shape"/>
</filter>
</defs>
</svg>
