<svg width="43" height="43" viewBox="0 0 43 43" fill="none" xmlns="http://www.w3.org/2000/svg">
<g filter="url(#filter0_d_559_676)">
<path fill-rule="evenodd" clip-rule="evenodd" d="M13.6917 38.823C16.0236 39.8299 18.5153 40.3333 21.1667 40.3333C23.8206 40.3359 26.3123 39.8331 28.6417 38.8249C30.9711 37.8167 32.9995 36.4508 34.7271 34.7271C36.4546 33.0034 37.82 30.9749 38.823 28.6417C39.8261 26.3084 40.3295 23.8168 40.3333 21.1667C40.3372 18.5166 39.8344 16.0249 38.8249 13.6917C37.8155 11.3584 36.4495 9.32997 34.7271 7.60625C33.0046 5.88253 30.9762 4.51722 28.6417 3.51033C26.3072 2.50344 23.8155 2 21.1667 2C18.5178 2 16.0262 2.50344 13.6917 3.51033C11.3572 4.51722 9.3287 5.88253 7.60625 7.60625C5.88381 9.32997 4.5185 11.3584 3.51034 13.6917C2.50217 16.0249 1.99872 18.5166 2 21.1667C2.00128 23.8168 2.50472 26.3084 3.51034 28.6417C4.51595 30.9749 5.88125 33.0034 7.60625 34.7271C9.33125 36.4508 11.3597 37.8161 13.6917 38.823ZM32.0438 32.0438C29.0729 35.0146 25.4472 36.5 21.1667 36.5C16.8861 36.5 13.2604 35.0146 10.2896 32.0438C7.31875 29.0729 5.83334 25.4472 5.83334 21.1667C5.83334 16.8861 7.31875 13.2604 10.2896 10.2896C13.2604 7.31875 16.8861 5.83333 21.1667 5.83333C25.4472 5.83333 29.0729 7.31875 32.0438 10.2896C35.0146 13.2604 36.5 16.8861 36.5 21.1667C36.5 25.4472 35.0146 29.0729 32.0438 32.0438Z" fill="#FFFCF7"/>
<path fill-rule="evenodd" clip-rule="evenodd" d="M21.1667 36.5C25.4472 36.5 29.0729 35.0146 32.0438 32.0438C35.0146 29.0729 36.5 25.4472 36.5 21.1667C36.5 16.8861 35.0146 13.2604 32.0438 10.2896C29.0729 7.31875 25.4472 5.83333 21.1667 5.83333C16.8861 5.83333 13.2604 7.31875 10.2896 10.2896C7.31875 13.2604 5.83334 16.8861 5.83334 21.1667C5.83334 25.4472 7.31875 29.0729 10.2896 32.0438C13.2604 35.0146 16.8861 36.5 21.1667 36.5ZM26.9167 23.0833H20.7833L22.5083 24.8083C22.8597 25.1597 23.0354 25.6069 23.0354 26.15C23.0354 26.6931 22.8597 27.1403 22.5083 27.4917C22.1569 27.8431 21.7097 28.0188 21.1667 28.0188C20.6236 28.0188 20.1764 27.8431 19.825 27.4917L14.8417 22.5083C14.4583 22.125 14.2667 21.6778 14.2667 21.1667C14.2667 20.6556 14.4583 20.2083 14.8417 19.825L19.825 14.8417C20.1764 14.4903 20.6236 14.3146 21.1667 14.3146C21.7097 14.3146 22.1569 14.4903 22.5083 14.8417C22.8597 15.1931 23.0354 15.6403 23.0354 16.1833C23.0354 16.7264 22.8597 17.1736 22.5083 17.525L20.7833 19.25H26.9167C27.4597 19.25 27.9146 19.434 28.2813 19.802C28.6481 20.17 28.8321 20.6249 28.8333 21.1667C28.8346 21.7084 28.6513 22.1633 28.2833 22.5313C27.9153 22.8993 27.4597 23.0833 26.9167 23.0833Z" fill="#FFFCF7"/>
<path d="M20.7833 23.0833H26.9167C27.4597 23.0833 27.9153 22.8993 28.2833 22.5313C28.6513 22.1633 28.8346 21.7084 28.8333 21.1667C28.8321 20.6249 28.6481 20.17 28.2813 19.802C27.9146 19.434 27.4597 19.25 26.9167 19.25H20.7833L22.5083 17.525C22.8597 17.1736 23.0354 16.7264 23.0354 16.1833C23.0354 15.6403 22.8597 15.1931 22.5083 14.8417C22.1569 14.4903 21.7097 14.3146 21.1667 14.3146C20.6236 14.3146 20.1764 14.4903 19.825 14.8417L14.8417 19.825C14.4583 20.2083 14.2667 20.6556 14.2667 21.1667C14.2667 21.6778 14.4583 22.125 14.8417 22.5083L19.825 27.4917C20.1764 27.8431 20.6236 28.0188 21.1667 28.0188C21.7097 28.0188 22.1569 27.8431 22.5083 27.4917C22.8597 27.1403 23.0354 26.6931 23.0354 26.15C23.0354 25.6069 22.8597 25.1597 22.5083 24.8083L20.7833 23.0833Z" fill="#F7D66E"/>
</g>
<defs>
<filter id="filter0_d_559_676" x="0" y="0" width="42.3334" height="42.3333" filterUnits="userSpaceOnUse" color-interpolation-filters="sRGB">
<feFlood flood-opacity="0" result="BackgroundImageFix"/>
<feColorMatrix in="SourceAlpha" type="matrix" values="0 0 0 0 0 0 0 0 0 0 0 0 0 0 0 0 0 0 127 0" result="hardAlpha"/>
<feOffset/>
<feGaussianBlur stdDeviation="1"/>
<feComposite in2="hardAlpha" operator="out"/>
<feColorMatrix type="matrix" values="0 0 0 0 0 0 0 0 0 0 0 0 0 0 0 0 0 0 0.25 0"/>
<feBlend mode="normal" in2="BackgroundImageFix" result="effect1_dropShadow_559_676"/>
<feBlend mode="normal" in="SourceGraphic" in2="effect1_dropShadow_559_676" result="shape"/>
</filter>
</defs>
</svg>
