<svg width="43" height="43" viewBox="0 0 43 43" fill="none" xmlns="http://www.w3.org/2000/svg">
<g filter="url(#filter0_d_559_660)">
<path d="M19.873 21.1667L24.425 25.7188C24.7764 26.0701 24.9521 26.5097 24.9521 27.0374C24.9521 27.5651 24.7764 28.02 24.425 28.4021C24.0417 28.7854 23.5862 28.9771 23.0585 28.9771C22.5307 28.9771 22.0758 28.7854 21.6938 28.4021L15.8 22.5083C15.4167 22.125 15.225 21.6778 15.225 21.1667C15.225 20.6556 15.4167 20.2083 15.8 19.825L21.7417 13.8833C22.125 13.5 22.5723 13.3166 23.0834 13.3333C23.5945 13.3499 24.0417 13.5492 24.425 13.9313C24.7764 14.3146 24.9604 14.7618 24.977 15.2729C24.9937 15.784 24.8097 16.2312 24.425 16.6146L19.873 21.1667Z" fill="#F7D66E"/>
<path fill-rule="evenodd" clip-rule="evenodd" d="M21.1667 40.3333C23.8181 40.3333 26.3098 39.8299 28.6417 38.823C30.9736 37.8161 33.0021 36.4508 34.7271 34.7271C36.4521 33.0034 37.8174 30.9749 38.823 28.6417C39.8286 26.3084 40.3321 23.8168 40.3334 21.1667C40.3346 18.5166 39.8312 16.0249 38.823 13.6917C37.8149 11.3584 36.4496 9.32997 34.7271 7.60625C33.0047 5.88253 30.9762 4.51722 28.6417 3.51033C26.3072 2.50344 23.8155 2 21.1667 2C18.5179 2 16.0262 2.50344 13.6917 3.51033C11.3572 4.51722 9.32873 5.88253 7.60629 7.60625C5.88384 9.32997 4.5179 11.3584 3.50846 13.6917C2.49901 16.0249 1.9962 18.5166 2.00004 21.1667C2.00387 23.8168 2.50732 26.3084 3.51037 28.6417C4.51343 30.9749 5.87873 33.0034 7.60629 34.7271C9.33384 36.4508 11.3623 37.8167 13.6917 38.8249C16.0211 39.8331 18.5128 40.3359 21.1667 40.3333ZM10.2896 32.0437C13.2605 35.0146 16.8862 36.5 21.1667 36.5C25.4473 36.5 29.073 35.0146 32.0438 32.0437C35.0146 29.0729 36.5 25.4472 36.5 21.1667C36.5 16.8861 35.0146 13.2604 32.0438 10.2896C29.073 7.31875 25.4473 5.83333 21.1667 5.83333C16.8862 5.83333 13.2605 7.31875 10.2896 10.2896C7.31879 13.2604 5.83337 16.8861 5.83337 21.1667C5.83337 25.4472 7.31879 29.0729 10.2896 32.0437Z" fill="#FFFCF7"/>
<path fill-rule="evenodd" clip-rule="evenodd" d="M21.1667 36.5C16.8862 36.5 13.2605 35.0146 10.2896 32.0437C7.31879 29.0729 5.83337 25.4472 5.83337 21.1667C5.83337 16.8861 7.31879 13.2604 10.2896 10.2896C13.2605 7.31875 16.8862 5.83333 21.1667 5.83333C25.4473 5.83333 29.073 7.31875 32.0438 10.2896C35.0146 13.2604 36.5 16.8861 36.5 21.1667C36.5 25.4472 35.0146 29.0729 32.0438 32.0437C29.073 35.0146 25.4473 36.5 21.1667 36.5ZM24.425 25.7188L19.873 21.1667L24.425 16.6146C24.8097 16.2312 24.9937 15.784 24.977 15.2729C24.9604 14.7618 24.7764 14.3146 24.425 13.9313C24.0417 13.5492 23.5945 13.3499 23.0834 13.3333C22.5723 13.3166 22.125 13.5 21.7417 13.8833L15.8 19.825C15.4167 20.2083 15.225 20.6556 15.225 21.1667C15.225 21.6778 15.4167 22.125 15.8 22.5083L21.6938 28.4021C22.0758 28.7854 22.5307 28.9771 23.0585 28.9771C23.5862 28.9771 24.0417 28.7854 24.425 28.4021C24.7764 28.02 24.9521 27.5651 24.9521 27.0374C24.9521 26.5097 24.7764 26.0701 24.425 25.7188Z" fill="#FFFCF7"/>
</g>
<defs>
<filter id="filter0_d_559_660" x="0" y="0" width="42.3334" height="42.3334" filterUnits="userSpaceOnUse" color-interpolation-filters="sRGB">
<feFlood flood-opacity="0" result="BackgroundImageFix"/>
<feColorMatrix in="SourceAlpha" type="matrix" values="0 0 0 0 0 0 0 0 0 0 0 0 0 0 0 0 0 0 127 0" result="hardAlpha"/>
<feOffset/>
<feGaussianBlur stdDeviation="1"/>
<feComposite in2="hardAlpha" operator="out"/>
<feColorMatrix type="matrix" values="0 0 0 0 0 0 0 0 0 0 0 0 0 0 0 0 0 0 0.25 0"/>
<feBlend mode="normal" in2="BackgroundImageFix" result="effect1_dropShadow_559_660"/>
<feBlend mode="normal" in="SourceGraphic" in2="effect1_dropShadow_559_660" result="shape"/>
</filter>
</defs>
</svg>
