<svg width="46" height="46" viewBox="0 0 46 46" fill="none" xmlns="http://www.w3.org/2000/svg">
<g filter="url(#filter0_d_559_672)">
<path d="M21.7063 23L26.2583 27.5521C26.6097 27.9035 26.7854 28.343 26.7854 28.8708C26.7854 29.3985 26.6097 29.8534 26.2583 30.2354C25.875 30.6188 25.4195 30.8104 24.8918 30.8104C24.364 30.8104 23.9091 30.6188 23.5271 30.2354L17.6333 24.3417C17.25 23.9583 17.0583 23.5111 17.0583 23C17.0583 22.4889 17.25 22.0417 17.6333 21.6583L23.575 15.7167C23.9583 15.3333 24.4056 15.15 24.9167 15.1666C25.4278 15.1832 25.875 15.3825 26.2583 15.7646C26.6097 16.1479 26.7937 16.5951 26.8103 17.1063C26.8269 17.6174 26.6429 18.0646 26.2583 18.4479L21.7063 23Z" fill="#F7D66E"/>
<path fill-rule="evenodd" clip-rule="evenodd" d="M23 42.1667C25.6514 42.1667 28.1431 41.6632 30.475 40.6563C32.8069 39.6495 34.8354 38.2842 36.5604 36.5604C38.2854 34.8367 39.6507 32.8082 40.6563 30.475C41.6619 28.1418 42.1654 25.6501 42.1667 23C42.1679 20.3499 41.6645 17.8582 40.6563 15.525C39.6482 13.1918 38.2829 11.1633 36.5604 9.43959C34.838 7.71587 32.8095 6.35057 30.475 5.34368C28.1405 4.33679 25.6488 3.83334 23 3.83334C20.3512 3.83334 17.8595 4.33679 15.525 5.34368C13.1905 6.35057 11.162 7.71587 9.43958 9.43959C7.71714 11.1633 6.3512 13.1918 5.34175 15.525C4.33231 17.8582 3.8295 20.3499 3.83334 23C3.83717 25.6501 4.34061 28.1418 5.34367 30.475C6.34673 32.8082 7.71203 34.8367 9.43958 36.5604C11.1671 38.2842 13.1956 39.6501 15.525 40.6583C17.8544 41.6664 20.3461 42.1692 23 42.1667ZM12.1229 33.8771C15.0938 36.8479 18.7194 38.3333 23 38.3333C27.2806 38.3333 30.9063 36.8479 33.8771 33.8771C36.8479 30.9063 38.3333 27.2806 38.3333 23C38.3333 18.7195 36.8479 15.0938 33.8771 12.1229C30.9063 9.15209 27.2806 7.66668 23 7.66668C18.7194 7.66668 15.0938 9.15209 12.1229 12.1229C9.15209 15.0938 7.66667 18.7195 7.66667 23C7.66667 27.2806 9.15209 30.9063 12.1229 33.8771Z" fill="#FFFCF7"/>
<path fill-rule="evenodd" clip-rule="evenodd" d="M23 38.3333C18.7194 38.3333 15.0938 36.8479 12.1229 33.8771C9.15209 30.9063 7.66667 27.2806 7.66667 23C7.66667 18.7195 9.15209 15.0938 12.1229 12.1229C15.0938 9.15209 18.7194 7.66668 23 7.66668C27.2806 7.66668 30.9063 9.15209 33.8771 12.1229C36.8479 15.0938 38.3333 18.7195 38.3333 23C38.3333 27.2806 36.8479 30.9063 33.8771 33.8771C30.9063 36.8479 27.2806 38.3333 23 38.3333ZM26.2583 27.5521L21.7063 23L26.2583 18.4479C26.6429 18.0646 26.8269 17.6174 26.8103 17.1063C26.7937 16.5951 26.6097 16.1479 26.2583 15.7646C25.875 15.3825 25.4278 15.1832 24.9167 15.1666C24.4056 15.15 23.9583 15.3333 23.575 15.7167L17.6333 21.6583C17.25 22.0417 17.0583 22.4889 17.0583 23C17.0583 23.5111 17.25 23.9583 17.6333 24.3417L23.5271 30.2354C23.9091 30.6188 24.364 30.8104 24.8918 30.8104C25.4195 30.8104 25.875 30.6188 26.2583 30.2354C26.6097 29.8534 26.7854 29.3985 26.7854 28.8708C26.7854 28.343 26.6097 27.9035 26.2583 27.5521Z" fill="#FFFCF7"/>
</g>
<defs>
<filter id="filter0_d_559_672" x="1.83331" y="1.83334" width="42.3334" height="42.3333" filterUnits="userSpaceOnUse" color-interpolation-filters="sRGB">
<feFlood flood-opacity="0" result="BackgroundImageFix"/>
<feColorMatrix in="SourceAlpha" type="matrix" values="0 0 0 0 0 0 0 0 0 0 0 0 0 0 0 0 0 0 127 0" result="hardAlpha"/>
<feOffset/>
<feGaussianBlur stdDeviation="1"/>
<feComposite in2="hardAlpha" operator="out"/>
<feColorMatrix type="matrix" values="0 0 0 0 0 0 0 0 0 0 0 0 0 0 0 0 0 0 0.25 0"/>
<feBlend mode="normal" in2="BackgroundImageFix" result="effect1_dropShadow_559_672"/>
<feBlend mode="normal" in="SourceGraphic" in2="effect1_dropShadow_559_672" result="shape"/>
</filter>
</defs>
</svg>
