<svg width="46" height="46" viewBox="0 0 46 46" fill="none" xmlns="http://www.w3.org/2000/svg">
<path d="M11.5 42.1667C10.4458 42.1667 9.54372 41.7917 8.79366 41.0416C8.04361 40.2915 7.66794 39.3888 7.66666 38.3334V19.1667C7.66666 18.1125 8.04233 17.2104 8.79366 16.4604C9.545 15.7103 10.4471 15.3346 11.5 15.3334H13.4167V11.5C13.4167 8.84863 14.3514 6.58888 16.2207 4.72077C18.0901 2.85266 20.3499 1.91797 23 1.91669C25.6501 1.91541 27.9105 2.85011 29.7812 4.72077C31.6518 6.59144 32.5859 8.85119 32.5833 11.5V15.3334H34.5C35.5542 15.3334 36.4569 15.709 37.2082 16.4604C37.9596 17.2117 38.3346 18.1138 38.3333 19.1667V38.3334C38.3333 39.3875 37.9583 40.2903 37.2082 41.0416C36.4582 41.7929 35.5554 42.168 34.5 42.1667H11.5ZM11.5 38.3334H34.5V19.1667H11.5V38.3334ZM25.7082 31.4564C26.4583 30.7076 26.8333 29.8055 26.8333 28.75C26.8333 27.6946 26.4583 26.7925 25.7082 26.0437C24.9582 25.2949 24.0554 24.9192 23 24.9167C21.9446 24.9141 21.0424 25.2898 20.2937 26.0437C19.5449 26.7976 19.1692 27.6997 19.1667 28.75C19.1641 29.8004 19.5398 30.7031 20.2937 31.4583C21.0476 32.2134 21.9497 32.5885 23 32.5834C24.0503 32.5782 24.9531 32.2013 25.7082 31.4564ZM17.25 15.3334H28.75V11.5C28.75 9.9028 28.191 8.54516 27.0729 7.4271C25.9549 6.30905 24.5972 5.75002 23 5.75002C21.4028 5.75002 20.0451 6.30905 18.9271 7.4271C17.809 8.54516 17.25 9.9028 17.25 11.5V15.3334Z" fill="#B3B3B3"/>
</svg>
