<svg width="18" height="18" viewBox="0 0 18 18" fill="none" xmlns="http://www.w3.org/2000/svg">
<path d="M10.8562 9L5.3437 3.4875C5.1562 3.3 5.06545 3.078 5.07145 2.8215C5.07745 2.565 5.17445 2.34325 5.36245 2.15625C5.55045 1.96925 5.77245 1.8755 6.02845 1.875C6.28445 1.8745 6.5062 1.96825 6.6937 2.15625L12.4499 7.93125C12.5999 8.08125 12.7124 8.25 12.7874 8.4375C12.8624 8.625 12.8999 8.8125 12.8999 9C12.8999 9.1875 12.8624 9.375 12.7874 9.5625C12.7124 9.75 12.5999 9.91875 12.4499 10.0688L6.67495 15.8438C6.48745 16.0313 6.2687 16.122 6.0187 16.116C5.7687 16.11 5.54995 16.013 5.36245 15.825C5.17495 15.637 5.0812 15.415 5.0812 15.159C5.0812 14.903 5.17495 14.6813 5.36245 14.4938L10.8562 9Z" fill="#B3B3B3"/>
</svg>
