<svg width="14" height="14" viewBox="0 0 14 14" fill="none" xmlns="http://www.w3.org/2000/svg">
<path d="M6.83 13.6606C10.56 13.6606 13.6603 10.5669 13.6603 6.83029C13.6603 3.10029 10.5531 0 6.82314 0C3.08686 0 0 3.10029 0 6.83029C0 10.5669 3.09343 13.6606 6.83 13.6606ZM6.70314 8.28343C6.33457 8.28343 6.14029 8.096 6.14029 7.73429V7.64057C6.14029 6.95086 6.50886 6.57572 7.01771 6.22772C7.64057 5.80571 7.92857 5.56486 7.92857 5.08257C7.92857 4.55343 7.51314 4.192 6.87029 4.192C6.40829 4.192 6.05343 4.42629 5.83914 4.808C5.61143 5.07571 5.54457 5.28343 5.14286 5.28343C4.91514 5.28343 4.66057 5.116 4.66057 4.80114C4.66057 4.68086 4.68743 4.56686 4.72086 4.45314C4.90171 3.80343 5.712 3.24114 6.91743 3.24114C8.116 3.24114 9.154 3.864 9.154 5.02886C9.154 5.87257 8.66514 6.27457 7.982 6.73657C7.5 7.06457 7.25886 7.30572 7.25886 7.70086V7.788C7.25886 8.06229 7.05114 8.28343 6.70314 8.28343ZM6.72314 10.2991C6.34143 10.2991 5.97314 9.99114 5.97314 9.57571C5.97314 9.16029 6.33457 8.85286 6.72314 8.85286C7.11829 8.85286 7.47314 9.154 7.47314 9.57571C7.47314 9.99771 7.11143 10.2991 6.72314 10.2991Z" fill="#B3B3B3"/>
</svg>
