<svg width="24" height="24" viewBox="0 0 24 24" fill="none" xmlns="http://www.w3.org/2000/svg">
<path d="M12 15.55L13.15 16.7C13.25 16.8 13.3667 16.85 13.5 16.85C13.6333 16.85 13.75 16.8 13.85 16.7L15 15.55L15.45 16C15.6 16.15 15.775 16.225 15.975 16.225C16.175 16.225 16.35 16.15 16.5 16C16.65 15.85 16.725 15.675 16.725 15.475C16.725 15.275 16.65 15.1 16.5 14.95L15.35 13.8C15.25 13.7 15.1333 13.65 15 13.65C14.8667 13.65 14.75 13.7 14.65 13.8L13.5 14.95L12.35 13.8C12.25 13.7 12.1333 13.65 12 13.65C11.8667 13.65 11.75 13.7 11.65 13.8L10.5 14.95L9.35 13.8C9.25 13.7 9.13333 13.65 9 13.65C8.86667 13.65 8.75 13.7 8.65 13.8L7.5 14.95C7.35 15.1 7.275 15.275 7.275 15.475C7.275 15.675 7.35 15.85 7.5 16C7.65 16.15 7.825 16.225 8.025 16.225C8.225 16.225 8.4 16.15 8.55 16L9 15.55L10.15 16.7C10.25 16.8 10.3667 16.85 10.5 16.85C10.6333 16.85 10.75 16.8 10.85 16.7L12 15.55ZM8.475 10L7.175 10.95C7.00833 11.0833 6.90433 11.25 6.863 11.45C6.82167 11.65 6.86733 11.8333 7 12C7.13267 12.1667 7.29933 12.271 7.5 12.313C7.70067 12.355 7.884 12.309 8.05 12.175L10.475 10.4C10.6083 10.3 10.675 10.1667 10.675 10C10.675 9.83333 10.6083 9.7 10.475 9.6L8.05 7.825C7.88333 7.69167 7.7 7.64567 7.5 7.687C7.3 7.72833 7.13333 7.83267 7 8C6.86667 8.16733 6.81667 8.35067 6.85 8.55C6.88333 8.74933 6.99167 8.916 7.175 9.05L8.475 10ZM15.525 10L16.825 9.05C16.9917 8.91667 17.096 8.75 17.138 8.55C17.18 8.35 17.134 8.16667 17 8C16.866 7.83333 16.6993 7.72933 16.5 7.688C16.3007 7.64667 16.1173 7.69233 15.95 7.825L13.525 9.6C13.3917 9.7 13.325 9.83333 13.325 10C13.325 10.1667 13.3917 10.3 13.525 10.4L15.95 12.175C16.1167 12.3083 16.3 12.3543 16.5 12.313C16.7 12.2717 16.8667 12.1673 17 12C17.1333 11.8327 17.1833 11.6493 17.15 11.45C17.1167 11.2507 17.0083 11.084 16.825 10.95L15.525 10ZM8.1 21.213C6.88334 20.6877 5.825 19.975 4.925 19.075C4.025 18.175 3.31267 17.1167 2.788 15.9C2.26333 14.6833 2.00067 13.3833 2 12C1.99933 10.6167 2.262 9.31667 2.788 8.1C3.314 6.88334 4.02633 5.825 4.925 4.925C5.82367 4.025 6.882 3.31267 8.1 2.788C9.318 2.26333 10.618 2.00067 12 2C13.382 1.99933 14.682 2.262 15.9 2.788C17.118 3.314 18.1763 4.02633 19.075 4.925C19.9737 5.82367 20.6863 6.882 21.213 8.1C21.7397 9.318 22.002 10.618 22 12C21.998 13.382 21.7353 14.682 21.212 15.9C20.6887 17.118 19.9763 18.1763 19.075 19.075C18.1737 19.9737 17.1153 20.6863 15.9 21.213C14.6847 21.7397 13.3847 22.002 12 22C10.6153 21.998 9.31534 21.7363 8.1 21.213ZM17.675 17.675C19.225 16.125 20 14.2333 20 12C20 9.76667 19.225 7.875 17.675 6.325C16.125 4.775 14.2333 4 12 4C9.76667 4 7.875 4.775 6.325 6.325C4.775 7.875 4 9.76667 4 12C4 14.2333 4.775 16.125 6.325 17.675C7.875 19.225 9.76667 20 12 20C14.2333 20 16.125 19.225 17.675 17.675Z" fill="#2C2C2C"/>
</svg>
