<svg width="24" height="24" viewBox="0 0 24 24" fill="none" xmlns="http://www.w3.org/2000/svg">
<path d="M12 17.5C12.8833 17.5 13.721 17.3083 14.513 16.925C15.305 16.5417 15.9423 15.9833 16.425 15.25C16.6083 14.9667 16.6333 14.6877 16.5 14.413C16.3667 14.1383 16.15 14.0007 15.85 14C15.7167 14 15.596 14.0293 15.488 14.088C15.38 14.1467 15.2923 14.234 15.225 14.35C14.8417 14.8667 14.3667 15.271 13.8 15.563C13.2333 15.855 12.6333 16.0007 12 16C11.3667 15.9993 10.7667 15.8537 10.2 15.563C9.63333 15.2723 9.15833 14.868 8.775 14.35C8.69167 14.2333 8.59567 14.146 8.487 14.088C8.37834 14.03 8.25767 14.0007 8.125 14C7.825 14 7.60833 14.1333 7.475 14.4C7.34167 14.6667 7.36667 14.9333 7.55 15.2C8.03333 15.95 8.671 16.521 9.463 16.913C10.255 17.305 11.1007 17.5007 12 17.5ZM15.5 11C15.9167 11 16.271 10.8543 16.563 10.563C16.855 10.2717 17.0007 9.91733 17 9.5C16.9993 9.08267 16.8537 8.72867 16.563 8.438C16.2723 8.14733 15.918 8.00133 15.5 8C15.082 7.99867 14.728 8.14467 14.438 8.438C14.148 8.73133 14.002 9.08533 14 9.5C13.998 9.91467 14.144 10.269 14.438 10.563C14.732 10.857 15.086 11.0027 15.5 11ZM8.5 11C8.91667 11 9.271 10.8543 9.563 10.563C9.855 10.2717 10.0007 9.91733 10 9.5C9.99933 9.08267 9.85367 8.72867 9.563 8.438C9.27233 8.14733 8.918 8.00133 8.5 8C8.082 7.99867 7.728 8.14467 7.438 8.438C7.148 8.73133 7.002 9.08533 7 9.5C6.998 9.91467 7.144 10.269 7.438 10.563C7.732 10.857 8.086 11.0027 8.5 11ZM8.1 21.213C6.88334 20.6877 5.825 19.975 4.925 19.075C4.025 18.175 3.31267 17.1167 2.788 15.9C2.26333 14.6833 2.00067 13.3833 2 12C1.99933 10.6167 2.262 9.31667 2.788 8.1C3.314 6.88334 4.02633 5.825 4.925 4.925C5.82367 4.025 6.882 3.31267 8.1 2.788C9.318 2.26333 10.618 2.00067 12 2C13.382 1.99933 14.682 2.262 15.9 2.788C17.118 3.314 18.1763 4.02633 19.075 4.925C19.9737 5.82367 20.6863 6.882 21.213 8.1C21.7397 9.318 22.002 10.618 22 12C21.998 13.382 21.7353 14.682 21.212 15.9C20.6887 17.118 19.9763 18.1763 19.075 19.075C18.1737 19.9737 17.1153 20.6863 15.9 21.213C14.6847 21.7397 13.3847 22.002 12 22C10.6153 21.998 9.31534 21.7363 8.1 21.213ZM17.675 17.675C19.225 16.125 20 14.2333 20 12C20 9.76667 19.225 7.875 17.675 6.325C16.125 4.775 14.2333 4 12 4C9.76667 4 7.875 4.775 6.325 6.325C4.775 7.875 4 9.76667 4 12C4 14.2333 4.775 16.125 6.325 17.675C7.875 19.225 9.76667 20 12 20C14.2333 20 16.125 19.225 17.675 17.675Z" fill="#2C2C2C"/>
</svg>
