<svg width="24" height="24" viewBox="0 0 24 24" fill="none" xmlns="http://www.w3.org/2000/svg">
<path d="M19.713 14.7C19.9877 14.7 20.225 14.8 20.425 15L22 16.6C22.2 16.8 22.3 17.0333 22.3 17.3C22.3 17.5667 22.2 17.8 22 18C21.8 18.2 21.5667 18.3 21.3 18.3C21.0333 18.3 20.8 18.2 20.6 18L19 16.425C18.8 16.225 18.7 15.9877 18.7 15.713C18.7 15.4383 18.8 15.2007 19 15C19.2 14.7993 19.4377 14.6993 19.713 14.7ZM20.3 3.71299C20.3 3.98765 20.2 4.22499 20 4.42499L18.425 5.99998C18.225 6.19998 17.9877 6.29999 17.713 6.29999C17.4383 6.29999 17.2007 6.19998 17 5.99998C16.7993 5.79998 16.6993 5.56265 16.7 5.28799C16.7007 5.01332 16.8007 4.77565 17 4.57498L18.6 2.99998C18.8 2.79998 19.0333 2.69999 19.3 2.69999C19.5667 2.69999 19.8 2.79998 20 2.99998C20.2 3.19998 20.3 3.43732 20.3 3.71198M4.713 2.69999C4.98767 2.69999 5.225 2.79998 5.425 2.99998L7 4.59998C7.2 4.79998 7.3 5.03332 7.3 5.29999C7.3 5.56665 7.2 5.79998 7 5.99998C6.8 6.19998 6.56267 6.29999 6.288 6.29999C6.01333 6.29999 5.77567 6.19998 5.575 5.99998L4 4.42499C3.8 4.22499 3.7 3.98765 3.7 3.71299C3.7 3.43832 3.8 3.20065 4 2.99998C4.2 2.79932 4.43767 2.69932 4.713 2.69999ZM5.3 15.713C5.3 15.9877 5.2 16.225 5 16.425L3.425 18C3.225 18.2 2.98767 18.3 2.713 18.3C2.43833 18.3 2.20067 18.2 2 18C1.79933 17.8 1.69933 17.5627 1.7 17.288C1.70067 17.0133 1.80067 16.7757 2 16.575L3.6 15C3.8 14.8 4.03333 14.7 4.3 14.7C4.56667 14.7 4.8 14.8 5 15C5.2 15.2 5.3 15.4377 5.3 15.713ZM8.85 16.825L12 14.925L15.15 16.85L14.325 13.25L17.1 10.85L13.45 10.525L12 7.12498L10.55 10.5L6.9 10.825L9.675 13.25L8.85 16.825ZM12 17.275L7.85 19.775C7.66667 19.8917 7.475 19.9417 7.275 19.925C7.075 19.9083 6.9 19.8417 6.75 19.725C6.6 19.6083 6.48333 19.4627 6.4 19.288C6.31667 19.1133 6.3 18.9173 6.35 18.7L7.45 13.975L3.775 10.8C3.60833 10.65 3.50433 10.479 3.463 10.287C3.42167 10.095 3.434 9.90765 3.5 9.72499C3.566 9.54232 3.666 9.39232 3.8 9.27498C3.934 9.15765 4.11733 9.08265 4.35 9.04998L9.2 8.62498L11.075 4.17499C11.1583 3.97499 11.2877 3.82498 11.463 3.72498C11.6383 3.62498 11.8173 3.57499 12 3.57499C12.1827 3.57499 12.3617 3.62498 12.537 3.72498C12.7123 3.82498 12.8417 3.97499 12.925 4.17499L14.8 8.62498L19.65 9.04998C19.8833 9.08332 20.0667 9.15832 20.2 9.27498C20.3333 9.39165 20.4333 9.54165 20.5 9.72499C20.5667 9.90832 20.5793 10.096 20.538 10.288C20.4967 10.48 20.3923 10.6507 20.225 10.8L16.55 13.975L17.65 18.7C17.7 18.9167 17.6833 19.1127 17.6 19.288C17.5167 19.4633 17.4 19.609 17.25 19.725C17.1 19.841 16.925 19.9077 16.725 19.925C16.525 19.9423 16.3333 19.8923 16.15 19.775L12 17.275Z" fill="#2C2C2C"/>
</svg>
