<svg width="46" height="46" viewBox="0 0 46 46" fill="none" xmlns="http://www.w3.org/2000/svg">
<g clip-path="url(#clip0_559_687)">
<g filter="url(#filter0_d_559_687)">
<path fill-rule="evenodd" clip-rule="evenodd" d="M13.4167 34.5C10.2222 34.5 7.50694 33.3819 5.27083 31.1458C3.03472 28.9097 1.91666 26.1944 1.91666 23C1.91666 19.8056 3.03472 17.0903 5.27083 14.8542C7.50694 12.6181 10.2222 11.5 13.4167 11.5H32.5833C35.7778 11.5 38.4931 12.6181 40.7292 14.8542C42.9653 17.0903 44.0833 19.8056 44.0833 23C44.0833 26.1944 42.9653 28.9097 40.7292 31.1458C38.4931 33.3819 35.7778 34.5 32.5833 34.5H13.4167ZM38.3333 23C38.3333 24.5972 37.7743 25.9549 36.6562 27.0729C35.5382 28.191 34.1806 28.75 32.5833 28.75C30.9861 28.75 29.6285 28.191 28.5104 27.0729C27.3924 25.9549 26.8333 24.5972 26.8333 23C26.8333 21.4028 27.3924 20.0451 28.5104 18.9271C29.6285 17.809 30.9861 17.25 32.5833 17.25C34.1806 17.25 35.5382 17.809 36.6562 18.9271C37.7743 20.0451 38.3333 21.4028 38.3333 23Z" fill="#F7D66E"/>
</g>
</g>
<defs>
<filter id="filter0_d_559_687" x="-0.0833359" y="9.5" width="46.1667" height="27" filterUnits="userSpaceOnUse" color-interpolation-filters="sRGB">
<feFlood flood-opacity="0" result="BackgroundImageFix"/>
<feColorMatrix in="SourceAlpha" type="matrix" values="0 0 0 0 0 0 0 0 0 0 0 0 0 0 0 0 0 0 127 0" result="hardAlpha"/>
<feOffset/>
<feGaussianBlur stdDeviation="1"/>
<feComposite in2="hardAlpha" operator="out"/>
<feColorMatrix type="matrix" values="0 0 0 0 0 0 0 0 0 0 0 0 0 0 0 0 0 0 0.25 0"/>
<feBlend mode="normal" in2="BackgroundImageFix" result="effect1_dropShadow_559_687"/>
<feBlend mode="normal" in="SourceGraphic" in2="effect1_dropShadow_559_687" result="shape"/>
</filter>
<clipPath id="clip0_559_687">
<rect width="46" height="46" fill="white"/>
</clipPath>
</defs>
</svg>
