<svg width="46" height="46" viewBox="0 0 46 46" fill="none" xmlns="http://www.w3.org/2000/svg">
<path d="M13.4167 34.5C10.2222 34.5 7.50695 33.3819 5.27083 31.1458C3.03472 28.9097 1.91667 26.1944 1.91667 23C1.91667 19.8056 3.03472 17.0903 5.27083 14.8542C7.50695 12.6181 10.2222 11.5 13.4167 11.5H32.5833C35.7778 11.5 38.4931 12.6181 40.7292 14.8542C42.9653 17.0903 44.0833 19.8056 44.0833 23C44.0833 26.1944 42.9653 28.9097 40.7292 31.1458C38.4931 33.3819 35.7778 34.5 32.5833 34.5H13.4167ZM17.4896 27.0729C18.6076 25.9549 19.1667 24.5972 19.1667 23C19.1667 21.4028 18.6076 20.0451 17.4896 18.9271C16.3715 17.809 15.0139 17.25 13.4167 17.25C11.8194 17.25 10.4618 17.809 9.34375 18.9271C8.2257 20.0451 7.66667 21.4028 7.66667 23C7.66667 24.5972 8.2257 25.9549 9.34375 27.0729C10.4618 28.191 11.8194 28.75 13.4167 28.75C15.0139 28.75 16.3715 28.191 17.4896 27.0729Z" fill="#B3B3B3"/>
</svg>
