<svg width="46" height="27" viewBox="0 0 46 27" fill="none" xmlns="http://www.w3.org/2000/svg">
<g filter="url(#filter0_d_559_688)">
<path fill-rule="evenodd" clip-rule="evenodd" d="M13.4167 25C10.2222 25 7.50694 23.8819 5.27083 21.6458C3.03472 19.4097 1.91666 16.6944 1.91666 13.5C1.91666 10.3056 3.03472 7.59028 5.27083 5.35417C7.50694 3.11806 10.2222 2 13.4167 2H32.5833C35.7778 2 38.4931 3.11806 40.7292 5.35417C42.9653 7.59028 44.0833 10.3056 44.0833 13.5C44.0833 16.6944 42.9653 19.4097 40.7292 21.6458C38.4931 23.8819 35.7778 25 32.5833 25H13.4167ZM38.3333 13.5C38.3333 15.0972 37.7743 16.4549 36.6562 17.5729C35.5382 18.691 34.1806 19.25 32.5833 19.25C30.9861 19.25 29.6285 18.691 28.5104 17.5729C27.3924 16.4549 26.8333 15.0972 26.8333 13.5C26.8333 11.9028 27.3924 10.5451 28.5104 9.42708C29.6285 8.30903 30.9861 7.75 32.5833 7.75C34.1806 7.75 35.5382 8.30903 36.6562 9.42708C37.7743 10.5451 38.3333 11.9028 38.3333 13.5Z" fill="#F7D66E"/>
</g>
<defs>
<filter id="filter0_d_559_688" x="-0.0833359" y="0" width="46.1667" height="27" filterUnits="userSpaceOnUse" color-interpolation-filters="sRGB">
<feFlood flood-opacity="0" result="BackgroundImageFix"/>
<feColorMatrix in="SourceAlpha" type="matrix" values="0 0 0 0 0 0 0 0 0 0 0 0 0 0 0 0 0 0 127 0" result="hardAlpha"/>
<feOffset/>
<feGaussianBlur stdDeviation="1"/>
<feComposite in2="hardAlpha" operator="out"/>
<feColorMatrix type="matrix" values="0 0 0 0 0 0 0 0 0 0 0 0 0 0 0 0 0 0 0.25 0"/>
<feBlend mode="normal" in2="BackgroundImageFix" result="effect1_dropShadow_559_688"/>
<feBlend mode="normal" in="SourceGraphic" in2="effect1_dropShadow_559_688" result="shape"/>
</filter>
</defs>
</svg>
