<svg width="46" height="27" viewBox="0 0 46 27" fill="none" xmlns="http://www.w3.org/2000/svg">
<g filter="url(#filter0_d_567_702)">
<path d="M13.4167 25C10.2222 25 7.50695 23.8819 5.27083 21.6458C3.03472 19.4097 1.91667 16.6944 1.91667 13.5C1.91667 10.3056 3.03472 7.59028 5.27083 5.35417C7.50695 3.11806 10.2222 2 13.4167 2H32.5833C35.7778 2 38.4931 3.11806 40.7292 5.35417C42.9653 7.59028 44.0833 10.3056 44.0833 13.5C44.0833 16.6944 42.9653 19.4097 40.7292 21.6458C38.4931 23.8819 35.7778 25 32.5833 25H13.4167ZM17.4896 17.5729C18.6076 16.4549 19.1667 15.0972 19.1667 13.5C19.1667 11.9028 18.6076 10.5451 17.4896 9.42708C16.3715 8.30903 15.0139 7.75 13.4167 7.75C11.8194 7.75 10.4618 8.30903 9.34375 9.42708C8.2257 10.5451 7.66667 11.9028 7.66667 13.5C7.66667 15.0972 8.2257 16.4549 9.34375 17.5729C10.4618 18.691 11.8194 19.25 13.4167 19.25C15.0139 19.25 16.3715 18.691 17.4896 17.5729Z" fill="#B3B3B3"/>
</g>
<defs>
<filter id="filter0_d_567_702" x="-0.0833321" y="0" width="46.1667" height="27" filterUnits="userSpaceOnUse" color-interpolation-filters="sRGB">
<feFlood flood-opacity="0" result="BackgroundImageFix"/>
<feColorMatrix in="SourceAlpha" type="matrix" values="0 0 0 0 0 0 0 0 0 0 0 0 0 0 0 0 0 0 127 0" result="hardAlpha"/>
<feOffset/>
<feGaussianBlur stdDeviation="1"/>
<feComposite in2="hardAlpha" operator="out"/>
<feColorMatrix type="matrix" values="0 0 0 0 0 0 0 0 0 0 0 0 0 0 0 0 0 0 0.25 0"/>
<feBlend mode="normal" in2="BackgroundImageFix" result="effect1_dropShadow_567_702"/>
<feBlend mode="normal" in="SourceGraphic" in2="effect1_dropShadow_567_702" result="shape"/>
</filter>
</defs>
</svg>
