<svg width="18" height="18" viewBox="0 0 18 18" fill="none" xmlns="http://www.w3.org/2000/svg">
<path d="M11.391 11.016C12.047 10.3595 12.375 9.5625 12.375 8.625C12.375 7.6875 12.047 6.89075 11.391 6.23475C10.735 5.57875 9.938 5.2505 9 5.25C8.062 5.2495 7.26525 5.57775 6.60975 6.23475C5.95425 6.89175 5.626 7.6885 5.625 8.625C5.624 9.5615 5.95225 10.3585 6.60975 11.016C7.26725 11.6735 8.064 12.0015 9 12C9.936 11.9985 10.733 11.6705 11.391 11.016ZM7.566 10.059C7.172 9.6655 6.975 9.1875 6.975 8.625C6.975 8.0625 7.172 7.5845 7.566 7.191C7.96 6.7975 8.438 6.6005 9 6.6C9.562 6.5995 10.0403 6.7965 10.4348 7.191C10.8293 7.5855 11.026 8.0635 11.025 8.625C11.024 9.1865 10.8273 9.66475 10.4348 10.0598C10.0423 10.4548 9.564 10.6515 9 10.65C8.436 10.6485 7.958 10.4518 7.566 10.0598M4.0125 12.7223C2.5125 11.7033 1.425 10.3375 0.75 8.625C1.425 6.9125 2.5125 5.547 4.0125 4.5285C5.5125 3.51 7.175 3.0005 9 3C10.825 2.9995 12.4875 3.509 13.9875 4.5285C15.4875 5.548 16.575 6.9135 17.25 8.625C16.575 10.3375 15.4875 11.7033 13.9875 12.7223C12.4875 13.7413 10.825 14.2505 9 14.25C7.175 14.2495 5.5125 13.7403 4.0125 12.7223Z" fill="#2C2C2C"/>
</svg>
