<svg width="18" height="18" viewBox="0 0 18 18" fill="none" xmlns="http://www.w3.org/2000/svg">
<path d="M14.85 16.95L11.7 13.8375C11.2625 13.975 10.822 14.0783 10.3785 14.1473C9.935 14.2163 9.4755 14.2505 9 14.25C7.1125 14.25 5.43125 13.7283 3.95625 12.6848C2.48125 11.6413 1.4125 10.288 0.75 8.62501C1.0125 7.96251 1.34375 7.34676 1.74375 6.77776C2.14375 6.20876 2.6 5.69951 3.1125 5.25001L1.05 3.15001L2.1 2.10001L15.9 15.9L14.85 16.95ZM9 12C9.1375 12 9.26575 11.9938 9.38475 11.9813C9.50375 11.9688 9.63175 11.9438 9.76875 11.9063L5.71875 7.85626C5.68125 7.99376 5.65625 8.12201 5.64375 8.24101C5.63125 8.36001 5.625 8.48801 5.625 8.62501C5.625 9.56251 5.95325 10.3595 6.60975 11.016C7.26625 11.6725 8.063 12.0005 9 12ZM14.475 12.3375L12.0938 9.97501C12.1812 9.76251 12.25 9.54701 12.3 9.32851C12.35 9.11001 12.375 8.87551 12.375 8.62501C12.375 7.68751 12.047 6.89076 11.391 6.23476C10.735 5.57876 9.938 5.25051 9 5.25001C8.75 5.25001 8.51575 5.27501 8.29725 5.32501C8.07875 5.37501 7.863 5.45001 7.65 5.55001L5.7375 3.63751C6.25 3.42501 6.775 3.26576 7.3125 3.15976C7.85 3.05376 8.4125 3.00051 9 3.00001C10.8875 3.00001 12.5688 3.52201 14.0438 4.56601C15.5188 5.61001 16.5875 6.96301 17.25 8.62501C16.9625 9.36251 16.5842 10.047 16.1152 10.6785C15.6462 11.31 15.0995 11.863 14.475 12.3375ZM11.0063 8.88751L8.75625 6.63751C9.10625 6.57501 9.42825 6.60326 9.72225 6.72226C10.0162 6.84126 10.2693 7.01301 10.4813 7.23751C10.6933 7.46201 10.8465 7.72151 10.941 8.01601C11.0355 8.31051 11.0573 8.60101 11.0063 8.88751Z" fill="#2C2C2C"/>
</svg>
